<svg t="1734515988697" class="icon" viewBox="0 0 1024 1024" version="1.1" xmlns="http://www.w3.org/2000/svg" p-id="6513" width="64" height="64"><path d="M844.8 108.8H256c-38.4 0-76.8 32-76.8 76.8V768c0 38.4 32 76.8 76.8 76.8h582.4c44.8 0 76.8-32 76.8-76.8V179.2c0-38.4-32-70.4-70.4-70.4z m-358.4 601.6h-192v-192h192v192z m0-281.6h-192v-192h192v192z m300.8 281.6H582.4c-12.8 0-19.2-12.8-19.2-19.2 0-12.8 6.4-19.2 19.2-19.2h204.8c12.8 0 19.2 6.4 19.2 19.2 0 6.4-12.8 19.2-19.2 19.2z m0-147.2H582.4c-12.8 0-19.2-12.8-19.2-19.2 0-12.8 6.4-19.2 19.2-19.2h204.8c12.8 0 19.2 6.4 19.2 19.2 0 12.8-12.8 19.2-19.2 19.2z m0-140.8H582.4c-12.8 0-19.2-12.8-19.2-19.2 0-12.8 6.4-19.2 19.2-19.2h204.8c12.8 0 19.2 6.4 19.2 19.2 0 12.8-12.8 19.2-19.2 19.2z m0-147.2H582.4c-12.8 0-19.2-6.4-19.2-19.2 0-12.8 6.4-19.2 19.2-19.2h204.8c12.8 0 19.2 6.4 19.2 19.2 0 12.8-12.8 19.2-19.2 19.2z" fill="#1E88F5" p-id="6514"></path><path d="M582.4 876.8H243.2c-57.6 0-96-51.2-96-96v-320c0-12.8-6.4-19.2-19.2-19.2-12.8 0-19.2 6.4-19.2 19.2v320c0 76.8 57.6 134.4 134.4 134.4h339.2c6.4 0 19.2-6.4 19.2-19.2 0-12.8-12.8-19.2-19.2-19.2z" fill="#FFD44D" p-id="6515"></path></svg>