<svg t="1735978720260" class="icon" viewBox="0 0 1170 1024" version="1.1" xmlns="http://www.w3.org/2000/svg" p-id="14193" width="200" height="200"><path d="M312.905143 731.428571c15.725714 0 28.452571 10.971429 28.452571 24.356572V950.857143c0 13.458286-12.726857 24.356571-28.525714 24.356571h-227.474286a31.012571 31.012571 0 0 1-20.114285-7.094857A22.747429 22.747429 0 0 1 56.905143 950.857143v-195.072c0-13.458286 12.726857-24.356571 28.452571-24.356572h227.474286z m-28.525714 48.786286H113.883429v146.285714h170.642285v-146.285714z m796.525714 24.356572c7.533714 0 14.774857 2.56 20.114286 7.168a22.747429 22.747429 0 0 1 8.338285 17.188571V877.714286c0 13.458286-12.726857 24.356571-28.525714 24.356571H455.168c-15.725714 0-28.452571-10.898286-28.452571-24.356571v-48.786286c0-13.458286 12.726857-24.356571 28.525714-24.356571h625.737143zM345.6 399.579429l4.388571 3.364571a32.768 32.768 0 0 1 3.803429 47.908571l-3.803429 3.730286-160.914285 137.947429a48.054857 48.054857 0 0 1-56.027429 3.291428l-4.315428-3.291428-80.457143-68.973715a32.914286 32.914286 0 0 1-1.901715-49.737142 47.835429 47.835429 0 0 1 57.782858-5.193143l4.388571 3.218285 50.322286 43.154286L289.645714 402.944a48.054857 48.054857 0 0 1 55.954286-3.364571h0.073143z m735.305143 63.634285c7.533714 0 14.774857 2.56 20.114286 7.168a22.747429 22.747429 0 0 1 8.338285 17.261715v48.713142a22.747429 22.747429 0 0 1-8.338285 17.261715 31.012571 31.012571 0 0 1-20.114286 7.168H455.094857a31.012571 31.012571 0 0 1-20.114286-7.168 22.747429 22.747429 0 0 1-8.338285-17.261715v-48.713142c0-6.509714 2.998857-12.726857 8.338285-17.261715a31.012571 31.012571 0 0 1 20.114286-7.168h625.810286zM345.6 58.294857l4.388571 3.291429a32.768 32.768 0 0 1 3.803429 47.908571l-3.803429 3.803429-160.914285 137.947428a48.054857 48.054857 0 0 1-56.027429 3.218286l-4.315428-3.218286-80.457143-69.046857a32.914286 32.914286 0 0 1-1.901715-49.737143 47.835429 47.835429 0 0 1 57.782858-5.193143l4.388571 3.291429 50.322286 43.081143L289.645714 61.586286a48.054857 48.054857 0 0 1 55.954286-3.291429h0.073143z m735.305143 63.634286c15.725714 0 28.452571 10.898286 28.452571 24.356571v48.786286c0 13.458286-12.726857 24.356571-28.525714 24.356571H455.168c-15.725714 0-28.452571-10.971429-28.452571-24.356571V146.285714c0-13.458286 12.726857-24.356571 28.525714-24.356571h625.737143z" p-id="14194"></path></svg>