<svg t="1735975500428" class="icon" viewBox="0 0 1024 1024" version="1.1" xmlns="http://www.w3.org/2000/svg" p-id="5347" width="200" height="200"><path d="M926.912 295.168H605.312v-202.88C605.312 41.408 562.752 0 510.72 0h-56.704C401.92 0 359.424 41.472 359.424 92.224v202.944H37.76A37.504 37.504 0 0 0 0 332.16v184.512c0 20.288 17.024 36.864 37.824 36.864h18.944v285.056c0 81.216-18.944 148.608-18.944 148.608 0 20.288 17.024 36.864 37.824 36.864h813.44c20.8 0 37.76-16.64 37.76-36.864 0 0-18.88-70.144-18.88-152.32V553.6h18.944c20.8 0 37.824-16.64 37.824-36.928V332.096a37.504 37.504 0 0 0-37.824-36.928z m-12.16 191.168a18.752 18.752 0 0 1-18.88 18.432H68.864A18.752 18.752 0 0 1 49.984 486.4V362.432c0-10.176 8.512-18.496 18.88-18.496h340.48V101.44c0-35.968 29.376-52.672 66.24-52.672h13.568c36.864 0 66.176 16.704 66.176 52.672v242.56h340.48c10.496 0 18.944 8.32 18.944 18.432v123.904z m-229.056 242.496h-9.408a14.4 14.4 0 0 0-14.208 13.824v232.64H510.72v-232.64a14.4 14.4 0 0 0-14.208-13.824h-9.408a14.4 14.4 0 0 0-14.208 13.824v232.64H312.128v-232.64a14.4 14.4 0 0 0-14.208-13.824h-9.472a14.4 14.4 0 0 0-14.208 13.824v232.64H87.744s18.944-54.592 18.944-136.704V553.6h751.36v285.056c0 82.112 18.88 136.704 18.88 136.704h-177.024v-232.64a14.336 14.336 0 0 0-14.208-13.824z"  p-id="5348"></path></svg>