<svg t="1735986051569" class="icon" viewBox="0 0 1024 1024" version="1.1" xmlns="http://www.w3.org/2000/svg" p-id="16340" width="200" height="200"><path d="M872 357H152v-30c0-16.6 13.4-30 30-30h660c16.6 0 30 13.4 30 30v30z" p-id="16341"></path><path d="M632 137H392c-44.2 0-80 35.8-80 80l-20 140h50l20-140c0-16.6 13.4-30 30-30h240c16.6 0 30 13.4 30 30l20 140h50l-20-140c0-44.2-35.8-80-80-80zM741.3 407c-5.2 0-9.6 4.1-10 9.3l-23.4 373.8c-1.6 26.4-26.5 46.9-52.9 46.9H369c-26.4 0-51.3-20.5-52.9-46.9l-23.4-373.8c-0.4-5.2-4.7-9.3-10-9.3h-30c-5.8 0-10.3 4.9-10 10.6L267.3 812c2.6 42.2 37.6 75 79.8 75h329.7c42.2 0 77.2-32.8 79.8-75l24.6-394.4c0.4-5.8-4.2-10.6-10-10.6h-29.9z" p-id="16342"></path><path d="M457 777h-30c-5.5 0-10-4.5-10-10V447c0-5.5 4.5-10 10-10h30c5.5 0 10 4.5 10 10v320c0 5.5-4.5 10-10 10zM597 777h-30c-5.5 0-10-4.5-10-10V447c0-5.5 4.5-10 10-10h30c5.5 0 10 4.5 10 10v320c0 5.5-4.5 10-10 10z" p-id="16343"></path></svg>