<svg t="1736097538410" class="icon" viewBox="0 0 1024 1024" version="1.1" xmlns="http://www.w3.org/2000/svg" p-id="7625" width="200" height="200"><path d="M607.3618772 382.63433814c9.27960181 0 17.28369164 3.29754663 23.93811036 9.88769579 6.67419434 6.69891334 10.03106713 14.62884546 10.03106713 23.89855909 0 9.26971435-3.36181617 17.30346656-10.03601051 23.99743652L559.70812964 512l71.58691454 71.37927222c6.67419434 6.69396997 10.0360105 14.62390137 10.03601051 23.68597412 0 9.26971435-3.36181617 17.30346656-10.03601051 23.89855981-6.64947533 6.59014916-14.65356445 9.88769508-23.93316698 9.88769508-9.33398461 0-17.23425293-3.29754663-23.73046875-9.78881836L512 559.68835473 440.63061523 631.06268287c-6.50115991 6.49127173-14.48547339 9.78881836-23.99249243 9.78881836-9.27960181 0-17.21942138-3.29754663-23.81451464-9.78881836-6.60003662-6.48632836-9.89758325-14.41625977-9.89758254-23.68597412 0-9.47735596 3.25799537-17.51110816 9.71466065-24.0023799L464.28692627 512 392.64068627 440.41308617c-6.45666528-6.48632836-9.71466065-14.41625977-9.71466065-23.68103075 0-9.37847924 3.29754663-17.41223145 9.89758254-24.00237989 6.59509253-6.69396997 14.53491211-9.9865725 23.81451464-9.9865725 9.35375953-0.10876489 17.3182981 3.29260253 23.99249243 9.9865725L512 464.31658935l71.62646508-71.58691382c6.69891334-6.69396997 14.59918237-9.9865725 23.73046875-9.98657251v-0.10876488zM512 208.67517066c-41.08337403 0-80.38696289 8.0337522-117.83660888 24.10125732-37.45953345 15.96368432-69.73297095 37.59301734-96.77087379 64.57653809-27.05767846 27.09228492-48.61779785 59.32617188-64.66552734 96.8203125-16.04772949 37.38537574-24.07159424 76.72851586-24.09136988 117.82672143-0.02966309 40.99438477 8.01397729 80.33752417 24.09136988 117.82672143 16.08233666 37.49414063 37.62762451 69.73297095 64.66552734 96.8203125 27.0181272 26.98352075 59.25695825 48.50903297 96.77087379 64.57653809 37.49414063 16.06750512 76.78784203 24.10125732 117.83660888 24.10125732 41.06854248 0 80.33752417-8.0337522 117.85638452-24.10125732 37.49414063-16.06750512 69.73297095-37.59301734 96.75109815-64.57653809 27.03790283-27.09228492 48.58319068-59.32617188 64.66552734-96.8203125 16.07739258-37.48919654 24.12103296-76.83233666 24.09136987-117.82672143-0.01977563-41.09820557-8.0337522-80.43640161-24.09136987-117.82672143-16.03784203-37.49414063-37.59796143-69.73297095-64.66552734-96.8203125-27.04284692-26.98352075-59.30145288-48.61285376-96.75109815-64.57653809C592.40179443 216.70397949 553.08337403 208.67517066 512 208.67517066zM512 141.21142578c50.39758301 0 98.47155786 9.78881836 144.19226074 29.35656762 45.73059106 19.56774926 85.13305664 45.93328857 118.24694801 78.99774122 33.11389136 33.05950928 59.42504859 72.50646949 79.00268602 118.23706055C873.0145874 413.53338623 882.78857422 461.63702416 882.78857422 512c0 50.36791992-9.77398682 98.36279297-29.34667945 144.19720483-19.57763672 45.73059106-45.88879395 85.07373047-79.00268602 118.13323974-33.11389136 33.16827416-72.51141357 59.53381347-118.24694801 79.00268532C610.47155786 872.90087914 562.39758301 882.78857422 512 882.78857422c-50.38769555 0-98.45178223-9.88769508-144.19226074-29.45544434-45.72564698-19.46887183-85.12316918-45.83441186-118.23706055-79.0026853-33.11389136-33.05950928-59.43493676-72.40264868-79.00268531-118.13323975C150.99035668 610.36279297 141.21142578 562.36297584 141.21142578 512c0-50.36791992 9.77398682-98.46661377 29.35656762-144.19720483 19.56774926-45.73059106 45.88879395-85.17755127 79.00268531-118.23706055 33.11389136-33.06445336 72.51141357-59.42999268 118.23706054-79.0026853C413.54821777 151.00024414 461.61230445 141.21142578 512 141.21142578z" p-id="7626"></path></svg>