<svg t="1746402007697" class="icon" viewBox="0 0 1024 1024" version="1.1" xmlns="http://www.w3.org/2000/svg" p-id="2310" width="200" height="200"><path d="M657.408 960h-460.8c-50.688 0-92.16-41.472-92.16-92.16v-711.68c0-50.688 41.472-92.16 92.16-92.16h460.8c50.688 0 92.16 41.472 92.16 92.16V271.36h-61.44V156.16c0-16.896-13.824-30.72-30.72-30.72h-460.8c-16.896 0-30.72 13.824-30.72 30.72v711.68c0 16.896 13.824 30.72 30.72 30.72h460.8c16.896 0 30.72-13.824 30.72-30.72v-101.376h61.44v101.376c0 50.688-41.472 92.16-92.16 92.16z" p-id="2311"></path><path d="M888.832 542.72h-481.28c-16.896 0-30.72-13.824-30.72-30.72s13.824-30.72 30.72-30.72h481.28c16.896 0 30.72 13.824 30.72 30.72s-13.824 30.72-30.72 30.72z" p-id="2312"></path><path d="M867.328 534.016l-137.728-137.728c-11.776-11.776-11.776-31.744 0-43.52s31.744-11.776 43.52 0l137.728 137.728c11.776 11.776 11.776 31.744 0 43.52-12.288 11.776-31.744 11.776-43.52 0z" p-id="2313"></path><path d="M867.328 490.496l-137.728 137.728c-11.776 11.776-11.776 31.744 0 43.52s31.744 11.776 43.52 0l137.728-137.728c11.776-11.776 11.776-31.744 0-43.52-12.288-11.776-31.744-11.776-43.52 0z" p-id="2314"></path><path d="M718.848 271.36m-30.72 0a30.72 30.72 0 1 0 61.44 0 30.72 30.72 0 1 0-61.44 0Z" p-id="2315"></path><path d="M718.848 767.488m-30.72 0a30.72 30.72 0 1 0 61.44 0 30.72 30.72 0 1 0-61.44 0Z" p-id="2316"></path></svg>