<svg width="89" height="28" viewBox="0 0 89 28" fill="none" xmlns="http://www.w3.org/2000/svg">
<g clip-path="url(#clip0_3_2)">
<path d="M13.9582 27.9094C21.6671 27.9094 27.9164 21.6617 27.9164 13.9547C27.9164 6.24774 21.6671 0 13.9582 0C6.2493 0 0 6.24774 0 13.9547C0 21.6617 6.2493 27.9094 13.9582 27.9094Z" fill="#C71D23"/>
<path fill-rule="evenodd" clip-rule="evenodd" d="M21.0235 12.4044H13.0966C12.716 12.4046 12.4074 12.713 12.4072 13.0936L12.4067 14.8163C12.4064 15.1969 12.7149 15.5055 13.0956 15.5056C13.0956 15.5058 13.0957 15.5056 13.0956 15.5056L17.9217 15.5054C18.3023 15.5054 18.611 15.8139 18.611 16.1945C18.611 16.1945 18.611 16.1945 18.611 16.1945L18.611 16.3667V16.539C18.611 17.6808 17.6851 18.6064 16.5431 18.6064H9.99431C9.61368 18.6063 9.30512 18.2979 9.30509 17.9173L9.30491 11.3708C9.30482 10.2291 10.2306 9.30346 11.3727 9.30343C11.3726 9.30337 11.3727 9.30343 11.3727 9.30343L21.0215 9.30348C21.4021 9.30306 21.7106 8.99479 21.7113 8.61437L21.7123 6.89164C21.713 6.51105 21.4046 6.20233 21.0239 6.2021C21.0238 6.20209 21.0236 6.2021 21.0235 6.20252H11.3733C8.51819 6.20252 6.20365 8.51649 6.20365 11.3709V21.0182C6.20365 21.3988 6.51225 21.7073 6.89294 21.7073H17.0601C19.6297 21.7073 21.7128 19.6248 21.7128 17.0559V13.0936C21.7128 12.713 21.4042 12.4044 21.0235 12.4044Z" fill="white"/>
<path d="M40.3549 24.7059C42.453 24.7059 44.128 24.2967 45.3798 23.4785C46.6317 22.6602 47.2576 21.6006 47.2576 20.2997C47.2576 18.2016 45.691 17.1525 42.5579 17.1525H40.6277C39.9843 17.1525 39.5227 17.0895 39.243 16.9637C38.9632 16.8378 38.8234 16.6279 38.8234 16.3342C38.8234 16.0405 38.9143 15.7957 39.0961 15.5998C39.166 15.5159 39.257 15.4879 39.3689 15.5159C39.8164 15.6418 40.2431 15.7048 40.6487 15.7048C42.0894 15.7048 43.2608 15.3586 44.1629 14.6662C45.0651 13.9738 45.5162 12.9492 45.5162 11.5924C45.5162 11.0888 45.4253 10.6412 45.2435 10.2495C45.2295 10.2216 45.233 10.1901 45.2539 10.1551C45.2749 10.1201 45.3064 10.1027 45.3484 10.1027H45.8309C46.1806 10.1027 46.4743 9.98376 46.7121 9.74597C46.9499 9.50818 47.0688 9.21444 47.0688 8.86474V8.571C47.0688 8.23529 46.9499 7.94505 46.7121 7.70026C46.4743 7.45548 46.1806 7.33308 45.8309 7.33308H42.7468C42.6488 7.33308 42.5439 7.3191 42.432 7.29112C41.8865 7.12327 41.2921 7.03934 40.6487 7.03934C39.7395 7.03934 38.9073 7.1967 38.152 7.51143C37.3967 7.82615 36.7707 8.32971 36.2742 9.02211C35.7777 9.7145 35.5294 10.5363 35.5294 11.4874C35.5294 12.1449 35.6832 12.7463 35.991 13.2919C36.2987 13.8374 36.6833 14.278 37.1449 14.6137C37.1729 14.6277 37.1869 14.6487 37.1869 14.6767C37.1869 14.7046 37.1729 14.7326 37.1449 14.7606C36.7533 15.0403 36.4385 15.3795 36.2008 15.7782C35.963 16.1768 35.8441 16.586 35.8441 17.0056C35.8441 17.9008 36.2008 18.5932 36.9141 19.0828C36.9421 19.0968 36.9561 19.1213 36.9561 19.1562C36.9561 19.1912 36.9421 19.2227 36.9141 19.2507C36.3546 19.5304 35.9315 19.8731 35.6448 20.2788C35.358 20.6844 35.2147 21.132 35.2147 21.6216C35.2147 22.321 35.4525 22.9085 35.928 23.384C36.4036 23.8596 37.0155 24.1988 37.7638 24.4016C38.5121 24.6045 39.3758 24.7059 40.3549 24.7059ZM40.6487 13.3968C40.1871 13.3968 39.8129 13.2324 39.5262 12.9037C39.2395 12.575 39.0961 12.1029 39.0961 11.4874C39.0961 10.886 39.2395 10.4209 39.5262 10.0922C39.8129 9.76346 40.1871 9.5991 40.6487 9.5991C41.1103 9.5991 41.4844 9.75996 41.7711 10.0817C42.0579 10.4034 42.2013 10.872 42.2013 11.4874C42.2013 12.1029 42.0579 12.575 41.7711 12.9037C41.4844 13.2324 41.1103 13.3968 40.6487 13.3968ZM40.9424 22.314C40.1451 22.314 39.5122 22.2056 39.0437 21.9888C38.5751 21.7719 38.3408 21.4467 38.3408 21.0131C38.3408 20.6634 38.5017 20.3347 38.8234 20.027C38.8653 19.985 38.9283 19.964 39.0122 19.964H39.0751C39.4248 20.034 39.9563 20.0689 40.6697 20.0689H41.8236C42.439 20.0689 42.8901 20.1319 43.1769 20.2578C43.4636 20.3837 43.607 20.6145 43.607 20.9502C43.607 21.3418 43.3587 21.667 42.8621 21.9258C42.3656 22.1846 41.7257 22.314 40.9424 22.314ZM51.0971 5.57063C51.7265 5.57063 52.244 5.38878 52.6496 5.0251C53.0553 4.66142 53.2581 4.19283 53.2581 3.61933C53.2581 3.04583 53.0553 2.57375 52.6496 2.20307C52.244 1.8324 51.7265 1.64706 51.0971 1.64706C50.4537 1.64706 49.9256 1.8324 49.513 2.20307C49.1004 2.57375 48.8941 3.04583 48.8941 3.61933C48.8941 4.19283 49.1004 4.66142 49.513 5.0251C49.9256 5.38878 50.4537 5.57063 51.0971 5.57063ZM51.7475 19.5024C52.0832 19.5024 52.3734 19.38 52.6182 19.1353C52.863 18.8905 52.9853 18.6002 52.9853 18.2645V8.50805C52.9853 8.17235 52.863 7.8821 52.6182 7.63732C52.3734 7.39253 52.0832 7.27014 51.7475 7.27014H50.4257C50.076 7.27014 49.7823 7.39253 49.5445 7.63732C49.3067 7.8821 49.1878 8.17235 49.1878 8.50805V18.2645C49.1878 18.6002 49.3067 18.8905 49.5445 19.1353C49.7823 19.38 50.076 19.5024 50.4257 19.5024H51.7475ZM60.8741 19.7962C61.4056 19.7962 61.9301 19.7472 62.4476 19.6493C62.7833 19.5934 63.0421 19.4115 63.2239 19.1038C63.3498 18.894 63.4128 18.6772 63.4128 18.4534C63.4128 18.3554 63.4058 18.2505 63.3918 18.1386L63.3078 17.8029C63.2379 17.5092 63.0631 17.2749 62.7833 17.1C62.5036 16.9252 62.1889 16.8308 61.8392 16.8168C60.8741 16.7748 60.3915 16.1454 60.3915 14.9284V10.4174C60.3915 10.3195 60.4405 10.2705 60.5384 10.2705H62.028C62.3637 10.2705 62.6539 10.1481 62.8987 9.90333C63.1435 9.65855 63.2659 9.3683 63.2659 9.0326V8.50805C63.2659 8.17235 63.1435 7.8821 62.8987 7.63732C62.6539 7.39253 62.3637 7.27014 62.028 7.27014H60.5384C60.4405 7.27014 60.3915 7.22118 60.3915 7.12327V5.29786C60.3915 4.94817 60.2691 4.65443 60.0244 4.41663C59.7796 4.17884 59.4894 4.05995 59.1537 4.05995H58.4403C58.0906 4.05995 57.7829 4.17535 57.5172 4.40614C57.2514 4.63694 57.0906 4.92719 57.0346 5.27688L56.8038 7.12327C56.7898 7.22118 56.7269 7.27713 56.615 7.29112L56.1324 7.33308C55.7828 7.36106 55.489 7.50443 55.2513 7.76321C55.0135 8.02198 54.8946 8.32621 54.8946 8.67591V9.0326C54.8946 9.3683 55.017 9.65855 55.2617 9.90333C55.5065 10.1481 55.7968 10.2705 56.1324 10.2705H56.4052C56.5031 10.2705 56.5521 10.3195 56.5521 10.4174V14.9704C56.5521 16.4951 56.9017 17.6805 57.6011 18.5268C58.3005 19.373 59.3915 19.7962 60.8741 19.7962ZM71.1337 19.7962C72.2526 19.7962 73.3576 19.5374 74.4486 19.0199C74.7563 18.88 74.9521 18.6352 75.0361 18.2855C75.078 18.1736 75.099 18.0617 75.099 17.9498C75.099 17.74 75.0361 17.5302 74.9102 17.3203L74.8472 17.1945C74.6794 16.9007 74.4346 16.7049 74.1129 16.607C73.9591 16.565 73.8052 16.544 73.6513 16.544C73.4695 16.544 73.2947 16.572 73.1268 16.6279C72.6513 16.7958 72.1617 16.8797 71.6582 16.8797C70.0077 16.8797 69.0076 16.1454 68.6579 14.6767C68.6439 14.6347 68.6509 14.5962 68.6789 14.5613C68.7069 14.5263 68.7419 14.5088 68.7838 14.5088H74.5535C74.9172 14.5088 75.2389 14.3934 75.5186 14.1626C75.7984 13.9318 75.9452 13.6416 75.9592 13.2919V12.8932C75.9592 11.1308 75.5116 9.70401 74.6165 8.61296C73.7213 7.52192 72.4205 6.9764 70.714 6.9764C69.9727 6.9764 69.2559 7.12676 68.5635 7.4275C67.8712 7.72824 67.2557 8.14787 66.7172 8.6864C66.1787 9.22493 65.7451 9.90333 65.4164 10.7216C65.0877 11.5399 64.9234 12.4316 64.9234 13.3968C64.9234 15.3691 65.5073 16.9287 66.6753 18.0757C67.8432 19.2227 69.3293 19.7962 71.1337 19.7962ZM72.5603 12.033H68.7209C68.623 12.033 68.574 11.998 68.574 11.9281C68.574 11.3546 68.8468 10.844 69.3923 10.3964C69.7839 10.0607 70.2525 9.89284 70.798 9.89284C71.4274 9.89284 71.8994 10.0712 72.2142 10.4279C72.5289 10.7846 72.7002 11.2636 72.7282 11.8651V11.8861C72.7282 11.984 72.6722 12.033 72.5603 12.033ZM83.9319 19.7962C85.0509 19.7962 86.1558 19.5374 87.2468 19.0199C87.5546 18.88 87.7504 18.6352 87.8343 18.2855C87.8763 18.1736 87.8972 18.0617 87.8972 17.9498C87.8972 17.74 87.8343 17.5302 87.7084 17.3203L87.6455 17.1945C87.4776 16.9007 87.2329 16.7049 86.9112 16.607C86.7573 16.565 86.6034 16.544 86.4496 16.544C86.2677 16.544 86.0929 16.572 85.9251 16.6279C85.4495 16.7958 84.9599 16.8797 84.4564 16.8797C82.8059 16.8797 81.8058 16.1454 81.4562 14.6767C81.4422 14.6347 81.4492 14.5962 81.4771 14.5613C81.5051 14.5263 81.5401 14.5088 81.582 14.5088H87.3517C87.7154 14.5088 88.0371 14.3934 88.3169 14.1626C88.5966 13.9318 88.7435 13.6416 88.7574 13.2919V12.8932C88.7574 11.1308 88.3099 9.70401 87.4147 8.61296C86.5195 7.52192 85.2187 6.9764 83.5123 6.9764C82.771 6.9764 82.0541 7.12676 81.3617 7.4275C80.6694 7.72824 80.054 8.14787 79.5155 8.6864C78.9769 9.22493 78.5433 9.90333 78.2146 10.7216C77.8859 11.5399 77.7216 12.4316 77.7216 13.3968C77.7216 15.3691 78.3056 16.9287 79.4735 18.0757C80.6414 19.2227 82.1275 19.7962 83.9319 19.7962ZM85.3586 12.033H81.5191C81.4212 12.033 81.3722 11.998 81.3722 11.9281C81.3722 11.3546 81.645 10.844 82.1905 10.3964C82.5821 10.0607 83.0507 9.89284 83.5962 9.89284C84.2256 9.89284 84.6977 10.0712 85.0124 10.4279C85.3271 10.7846 85.4984 11.2636 85.5264 11.8651V11.8861C85.5264 11.984 85.4705 12.033 85.3586 12.033Z" fill="black"/>
</g>
<defs>
<clipPath id="clip0_3_2">
<rect width="89" height="28" fill="white"/>
</clipPath>
</defs>
</svg>
