<svg t="1744812021887" class="icon" viewBox="0 0 3490 1024" version="1.1" xmlns="http://www.w3.org/2000/svg" p-id="6232" width="200" height="200"><path d="M578.955636 65.489455L540.416 10.845091c-4.724364-2.885818-10.612364-7.633455-15.825455-9.029818-11.380364-4.933818-23.645091 1.024-32.907636 8.052363l-69.771636 90.856728c-111.895273 138.589091-244.363636 268.032-388.887273 367.220363-11.426909 8.913455-28.439273 17.640727-31.953455 32.349091-3.793455 13.242182 3.095273 24.157091 11.310546 32.395637 115.712 79.709091 226.373818 174.336 324.887273 282.274909 17.454545 18.385455 31.650909 36.631273 48.733091 53.876363 28.811636 38.330182 62.650182 76.962909 89.134545 118.085818 8.285091 8.680727 9.728 22.946909 22.714182 27.182546 10.146909 3.514182 22.714182 5.888 32.395636 0l9.658182-9.681455c119.738182-169.658182 271.592727-321.978182 441.297455-444.974545 16.989091-15.197091 49.408-20.829091 49.896727-48.989091a44.823273 44.823273 0 0 0-19.944727-32.884364l-2.769455-0.465454a1712.896 1712.896 0 0 1-245.317818-202.775273l-84.712727-88.482909c-34.304-38.050909-67.653818-80.174545-99.374546-120.366545z m109.195637 843.403636c-19.060364 0-35.979636 13.195636-35.979637 35.816727 0 22.644364 16.919273 35.886545 35.979637 35.886546 18.897455 0 35.863273-13.265455 35.863272-35.886546 0-22.621091-16.965818-35.816727-35.863272-35.816727z m0 63.418182v-0.116364c-14.219636 0.116364-25.669818-10.938182-25.669818-27.485091 0-16.500364 11.450182-27.461818 25.669818-27.461818 13.870545 0 25.669818 10.961455 25.669818 27.461818 0 16.523636-11.799273 27.601455-25.669818 27.601455z m16.011636-35.258182c0-8.843636-5.818182-11.613091-15.825454-11.613091h-14.405819v38.562909h8.261819v-16.221091h3.909818l8.866909 16.221091h9.844363l-9.960727-16.919273c5.213091-0.442182 9.309091-2.955636 9.309091-10.007272z m-14.615273 4.189091h-7.354181v-9.309091h5.818181c3.141818 0 7.400727 0.279273 7.400728 4.305454 0 4.212364-2.187636 5.003636-5.864728 5.003637z m474.600728-35.560727V134.656H1377.745455v771.025455h-213.573819z m1032.657454 0V134.656h587.170909v149.457455H2410.356364v159.115636h343.738181v149.527273h-343.738181v163.374545h373.666909v149.550546h-587.170909z m-706.978909 0V134.656h587.310546v149.457455h-373.76v159.115636h343.831272v149.527273H1703.377455v163.374545h373.76v149.550546H1489.826909z m1413.748364 0V134.656H3490.909091v149.457455h-373.620364v159.115636h343.738182v149.527273h-343.738182v163.374545H3490.909091v149.550546h-587.333818zM479.162182 143.313455c34.048-26.507636 76.893091-4.491636 105.541818 19.874909 29.998545 22.923636 61.230545 48.896 88.669091 75.473454l4.980364 2.862546c75.962182 70.469818 146.501818 148.782545 204.450909 231.586909 9.378909 14.429091 17.687273 30.72 12.450909 49.850182-19.339636 48.314182-58.600727 86.807273-92.928 129.000727-74.286545 79.941818-152.622545 157.323636-240.360728 219.042909-17.733818 12.544-41.658182 24.110545-62.906181 14.149818-64.558545-33.792-119.016727-89.134545-175.522909-139.589818-65.536-60.765091-131.304727-131.514182-180.992-205.544727-7.377455-10.379636-9.448727-23.179636-9.239273-36.887273 6.376727-25.553455 23.877818-46.568727 40.448-68.119273 58.693818-74.798545 130.583273-145.733818 203.170909-210.548363 1.698909-1.675636 4.794182-5.189818 7.424-6.888728a1315.025455 1315.025455 0 0 1 94.813091-74.263272z m12.520727 20.852363c34.816-23.714909 66.048 9.448727 93.021091 28.392727 104.285091 83.944727 202.705455 180.014545 277.690182 288.535273 9.472 14.010182 13.730909 35.746909 5.259636 51.595637-19.456 32.418909-45.684364 62.021818-70.539636 92.066909v1.629091c-61.998545 66.024727-127.488 133.888-198.283637 189.765818-34.490182 21.015273-66.187636 66.909091-110.68509 38.493091-101.282909-74.007273-198.190545-166.050909-280.366546-264.750546-13.917091-21.690182-35.677091-39.470545-45.381818-64.069818-13.498182-33.326545 16.290909-57.250909 33.373091-82.338909 83.781818-103.330909 187.810909-204.637091 295.912727-279.319273z m-4.491636 433.338182c-2.816 54.458182-3.514182 104.843636-7.540364 159.418182 21.550545 1.954909 45.847273 3.863273 68.840727 0.488727l-6.865454-152.133818-1.210182-7.237818c-17.477818 0.674909-34.048 1.396364-53.224727-0.535273z m-134.562909-152.878545c-26.530909 13.312-65.582545 33.419636-61.300364 69.818181 5.701818 19.874909 27.229091 32.721455 44.218182 40.890182 94.138182 41.472 219.112727 42.891636 318.487273 11.938909 24.529455-9.448727 57.483636-23.179636 61.975272-53.224727-0.279273-24.855273-26.530909-40.494545-45.451636-49.989818v-1.163637c6.609455-2.629818 14.173091-4.957091 20.992-5.678545v-0.651636c-33.28-5.957818-65.419636-14.661818-97.675636-23.202909 6.213818 14.149818 10.705455 29.090909 15.872 43.752727a175.336727 175.336727 0 0 1 30.091636-6.842182c16.989091 6.586182 41.332364 16.058182 43.752727 37.329455 1.861818 19.874909-19.874909 29.556364-33.605818 37.632-72.890182 26.530909-154.926545 29.090909-230.935273 8.936727-20.992-6.609455-51.316364-15.104-53.922909-41.844364 14.917818-35.188364 53.457455-42.519273 85.643637-51.083636-16.523636-10.635636-33.349818-20.084364-49.384728-31.953455-17.314909 0.977455-33.163636 8.541091-48.756363 15.36z m161.047272-212.363637l-9.448727 30.301091-47.313454 135.517091c11.869091 1.210182 26.530909 0 38.167272 1.210182v1.117091l-6.935272 153.320727 1.186909 1.629091c15.127273 1.466182 34.048 2.234182 49.477818-0.418909v-2.397091l-6.167273-148.712727 0.907636-5.026909 41.658182-0.698182a6832.337455 6832.337455 0 0 1-60.322909-165.841455h-1.233454z" fill="#1296db" p-id="6233"></path></svg>