<svg t="1736074397450" class="icon" viewBox="0 0 1024 1024" version="1.1" xmlns="http://www.w3.org/2000/svg" p-id="6856" width="200" height="200"><path d="M512 769c-75.175 0-145.255-12.518-208.293-37.203-50.817-19.9-97.11-47.675-137.593-82.554-69.432-59.818-97.958-120.226-99.138-122.768A31.997 31.997 0 0 1 64 513v-1c0-4.655 1.016-9.253 2.976-13.476 1.18-2.542 29.706-62.95 99.138-122.768 40.483-34.878 86.776-62.653 137.593-82.553C366.745 268.517 436.825 256 512 256c75.175 0 145.256 12.517 208.294 37.203 50.816 19.9 97.109 47.675 137.593 82.553 69.432 59.818 97.957 120.226 99.138 122.768A32.005 32.005 0 0 1 960.001 512v1c0 4.655-1.016 9.254-2.976 13.476-1.181 2.542-29.706 62.949-99.138 122.768-40.483 34.879-86.776 62.653-137.593 82.554C657.256 756.482 587.175 769 512 769zM132.246 512.5c11.252 18.686 36.069 54.698 77.957 90.236C290.184 670.594 391.723 705 512 705s221.816-34.406 301.798-102.264c41.888-35.538 66.705-71.551 77.956-90.236-11.251-18.686-36.068-54.698-77.956-90.236C733.816 354.406 632.277 320 512 320s-221.816 34.406-301.797 102.264c-41.889 35.538-66.705 71.55-77.957 90.236z" p-id="6857"></path><path d="M512 672.031c-88.242 0-160.031-71.79-160.031-160.031 0-88.242 71.79-160.031 160.031-160.031S672.031 423.759 672.031 512 600.241 672.031 512 672.031z m0-256c-52.917 0-95.969 43.052-95.969 95.969s43.052 95.969 95.969 95.969 95.969-43.052 95.969-95.969-43.052-95.969-95.969-95.969z" p-id="6858"></path></svg>