<svg t="1740900505894" class="icon" viewBox="0 0 1024 1024" version="1.1" xmlns="http://www.w3.org/2000/svg" p-id="5505" width="200" height="200"><path d="M94.4 937.6c-41.6 0-74.4-32.8-74.4-72.8v-706.4c0-40 33.6-72.8 74.4-72.8h338.4l78.4 116.8h421.6c34.4 0 71.2 19.2 71.2 60.8V864.8c0 40-33.6 72.8-74.4 72.8h-835.2z m0-800.8c-12.8 0-24 9.6-24 21.6V864.8c0 12 10.4 21.6 24 21.6h834.4c12.8 0 24-9.6 24-21.6v-600.8-4l-0.8-0.8c-3.2-3.2-12-4.8-18.4-4.8h-448.8l-78.4-116.8h-312z" fill="" p-id="5506"></path><path d="M260.8 600c-14.4 0-25.6-11.2-25.6-25.6s11.2-25.6 25.6-25.6h489.6c14.4 0 25.6 11.2 25.6 25.6s-11.2 25.6-25.6 25.6h-489.6z" fill="" p-id="5507"></path><path d="M612.8 748.8c-7.2 0-13.6-2.4-18.4-7.2-9.6-9.6-9.6-26.4 0-36l147.2-147.2c4.8-4.8 11.2-7.2 18.4-7.2s13.6 2.4 18.4 7.2c4.8 4.8 7.2 11.2 7.2 18.4 0 7.2-2.4 13.6-7.2 18.4l-147.2 147.2c-5.6 4-12 6.4-18.4 6.4z" fill="" p-id="5508"></path><path d="M763.2 598.4c-7.2 0-13.6-2.4-18.4-7.2l-147.2-147.2c-4.8-4.8-7.2-11.2-7.2-18.4 0-7.2 2.4-13.6 7.2-18.4 4.8-4.8 11.2-7.2 18.4-7.2 7.2 0 13.6 2.4 18.4 7.2l147.2 147.2c9.6 9.6 9.6 26.4 0 36-4.8 5.6-11.2 8-18.4 8z" fill="" p-id="5509"></path></svg>