<svg t="1740892079412" class="icon" viewBox="0 0 1137 1024" version="1.1" xmlns="http://www.w3.org/2000/svg" p-id="5200" width="64" height="64"><path d="M1135.729778 227.555556H0v56.888888h1137.777778v-18.204444 602.396444a103.424 103.424 0 0 1-103.424 103.424H103.424A103.424 103.424 0 0 1 0 868.636444V103.480889C0 46.250667 46.307556 0 103.424 0h336.213333c53.589333 0 97.678222 40.789333 102.855111 93.070222h0.113778v-0.170666l0.056889 2.275555 0.227556 3.185778a51.768889 51.768889 0 0 0 51.427555 46.250667h440.035556c50.062222 0 91.875556 35.612444 101.376 82.944zM413.752889 635.904h129.251555v129.251556a25.884444 25.884444 0 0 0 51.768889 0v-129.251556h129.251556a25.884444 25.884444 0 0 0 0-51.768889h-129.251556V454.940444a25.884444 25.884444 0 0 0-51.768889 0v129.308445H413.752889a25.884444 25.884444 0 0 0 0 51.712z" fill="#478EEE" p-id="5201"></path></svg>