<svg t="1746086808369" class="icon" viewBox="0 0 4169 1024" version="1.1" xmlns="http://www.w3.org/2000/svg" p-id="4001" width="200" height="200"><path d="M503.661714 694.686476c-100.961524 0.682667-183.271619-65.243429-188.806095-188.17219-5.534476-114.712381 95.451429-191.634286 191.585524-193.682286 110.665143-2.755048 177.054476 123.611429 177.054476 123.611429l285.622857-105.081905S851.553524 27.160381 533.455238 27.160381c-297.423238 0-502.832762 206.019048-502.832762 485.546667 0 248.612571 193.657905 496.542476 495.908572 485.571047 331.971048-12.361143 445.391238-304.274286 445.391238-304.274285l-293.254096-96.816762c0.707048-1.365333-59.489524 97.52381-174.982095 97.523809" fill="#3DAB53" p-id="4002"></path><path d="M1421.287619 679.619048c92.647619 0 137.167238-78.701714 137.167238-167.619048 0-88.185905-45.958095-167.619048-137.167238-167.619048-91.209143 0-137.167238 79.433143-137.167238 167.619048 0 88.917333 44.495238 167.619048 137.167238 167.619048z m0 100.571428C1273.173333 780.190476 1170.285714 662.844952 1170.285714 512c0-151.576381 102.15619-268.190476 251.001905-268.190476 146.651429 0 251.001905 120.246857 251.001905 268.190476 0 150.869333-101.424762 268.190476-251.001905 268.190476z m460.409905-536.380952c40.862476 0 143.018667 15.311238 143.018666 72.899047 0 28.40381-18.992762 53.906286-48.90819 53.906286-29.915429 0-53.248-21.869714-97.03619-21.869714-31.378286 0-59.830857 16.774095-59.830858 47.37219 0 75.093333 243.712 26.965333 243.712 214.991238C2062.628571 715.337143 1976.539429 780.190476 1875.846095 780.190476c-56.173714 0-177.298286-13.116952-177.298285-81.627428 0-28.42819 18.968381-51.736381 48.883809-51.736381 34.304 0 75.166476 28.42819 122.587429 28.42819 48.152381 0 74.435048-26.965333 74.435047-62.683428 0-85.991619-243.712-34.255238-243.712-203.337143 0-102.009905 83.919238-165.424762 180.955429-165.424762z m207.238095 268.190476c0-151.576381 102.13181-268.190476 250.977524-268.190476 53.272381 0 156.867048 17.481143 156.867047 81.627428 0 26.233905-18.236952 48.835048-45.226666 48.835048-29.915429 0-50.346667-25.526857-111.640381-25.526857-90.477714 0-137.167238 76.53181-137.167238 165.449143 0 86.723048 47.420952 161.060571 137.167238 161.060571 61.293714 0 86.089143-30.622476 116.004571-30.622476 32.841143 0 48.176762 32.792381 48.176762 49.566476 0 69.973333-110.201905 85.991619-164.181333 85.991619-148.114286 0-251.001905-117.345524-251.001905-268.190476z m466.212571 206.994286V305.005714c0-36.425143 23.356952-56.807619 54.735239-56.807619 31.378286 0 54.735238 20.382476 54.735238 56.807619v154.526476h229.107809V305.005714c0-36.449524 23.332571-56.856381 54.710857-56.856381 31.378286 0 54.735238 20.406857 54.735238 56.856381v413.93981c0 36.449524-23.356952 56.856381-54.735238 56.856381-31.378286 0-54.710857-20.406857-54.710857-56.856381v-158.866286h-229.107809v158.866286c0 36.449524-23.356952 56.856381-54.735238 56.856381-31.378286 0-54.735238-20.406857-54.735239-56.856381z m513.706667 0V305.005714c0-36.425143 23.332571-56.807619 54.710857-56.807619 31.353905 0 54.710857 20.382476 54.710857 56.807619v413.988572c0 36.425143-23.356952 56.807619-54.710857 56.807619-31.378286 0-54.735238-20.382476-54.735238-56.807619z m170.715429 0V305.005714c0-36.425143 23.356952-56.807619 54.735238-56.807619 13.848381 0 36.473905 10.922667 45.958095 24.039619l231.302095 308.272762h1.462857v-275.504762c0-36.425143 23.332571-56.807619 54.710858-56.807619 31.378286 0 54.735238 20.382476 54.735238 56.807619v413.988572c0 36.425143-23.356952 56.807619-54.735238 56.807619-13.848381 0-35.742476-10.922667-45.958096-24.039619l-231.302095-304.615619h-1.462857v271.847619c0 36.425143-23.356952 56.807619-54.710857 56.807619-31.378286 0-54.735238-20.382476-54.735238-56.807619z m477.915428-18.236953l146.67581-396.458666c12.385524-33.52381 40.838095-60.489143 78.067809-60.489143 38.66819 0 65.657905 25.502476 78.06781 60.489143l143.018667 396.434285c4.388571 11.702857 5.827048 21.894095 5.827047 26.989715 0 28.42819-23.356952 48.103619-50.346667 48.103619-30.646857 0-45.958095-16.042667-53.27238-37.912381l-21.869715-68.510476h-202.849524l-21.894095 67.779047c-7.314286 22.601143-22.625524 38.64381-52.540952 38.64381-29.184 0-53.979429-21.869714-53.979429-51.029334 0-11.654095 3.657143-20.406857 5.12-24.039619z m224.012191-343.259428l-69.315048 211.358476h138.630095l-67.85219-211.358476h-1.462857z" fill="#111111" p-id="4003"></path></svg>