<svg t="1736074554065" class="icon" viewBox="0 0 1024 1024" version="1.1" xmlns="http://www.w3.org/2000/svg" p-id="13066" width="200" height="200"><path d="M958.098 762.198l-92.621-124.674c34.074-31.213 55.706-67.084 61.082-105.491 0.161-0.757 0.258-1.534 0.308-2.326 0.021-0.183 0.051-0.364 0.072-0.547h-0.045c0.005-0.165 0.024-0.326 0.024-0.492 0-8.819-7.161-16.011-16.011-16.011-8.851 0-16.01 7.192-16.01 16.011 0 0.166 0.021 0.327 0.024 0.492h-0.221c-15.722 107.476-188.41 192.134-399.11 192.134S112.204 636.636 96.48 529.16h-0.269c-0.734-8.142-7.578-14.562-15.937-14.562-8.36 0-15.205 6.42-15.938 14.562h-0.094c0.021 0.167 0.048 0.334 0.068 0.501-0.019 0.314-0.047 0.628-0.047 0.948 0 1.97 0.372 3.848 1.021 5.59 8.427 49.171 43.52 94.018 97.175 130.021l-90.347 96.291c-4.441 7.63-1.814 17.45 5.848 21.859 7.661 4.41 17.45 1.782 21.89-5.849l89.792-95.695c31.604 17.589 68.104 32.455 108.248 43.943l-44.996 168.615c-2.284 8.536 2.783 17.325 11.321 19.608 8.537 2.283 17.325-2.786 19.607-11.32l45.072-168.865c46.645 10.841 97.435 17.272 150.688 18.348v176.282c0 8.85 7.161 16.014 16.011 16.014 8.849 0 16.01-7.164 16.01-16.014V753.155c58.771-1.189 114.548-8.897 165.059-21.857l53.905 169.995c2.688 8.819 13.103 14.041 23.234 11.697 10.134-2.377 16.136-11.447 13.416-20.264L712.72 720.867c50.022-16.173 93.674-37.761 128.342-63.322l89.3 120.194c4.438 7.412 14.227 9.978 21.889 5.691 7.662-4.283 10.257-13.789 5.847-21.232z" p-id="13067"></path></svg>