<svg t="1734701506830" class="icon" viewBox="0 0 1024 1024" version="1.1" xmlns="http://www.w3.org/2000/svg" p-id="3228" width="200" height="200"><path d="M554.8 99.6l104.9 212.5c7 14.1 20.4 23.9 36 26.1l234.6 34.1c39.2 5.7 54.8 53.8 26.5 81.5L787 619.2a47.57 47.57 0 0 0-13.7 42.3l40.1 233.6c6.7 39-34.3 68.8-69.3 50.4L534.2 835.2c-13.9-7.3-30.5-7.3-44.5 0L280 945.5c-35 18.4-76-11.3-69.3-50.4l40.1-233.6c2.7-15.5-2.5-31.3-13.7-42.3L67.3 453.8c-28.4-27.6-12.7-75.8 26.5-81.5l234.6-34.1c15.6-2.3 29-12 36-26.1L469.2 99.6c17.5-35.5 68.1-35.5 85.6 0z" p-id="3229"></path></svg>