<svg t="1740816386370" class="icon" viewBox="0 0 2027 1024" version="1.1" xmlns="http://www.w3.org/2000/svg" p-id="18286" width="200" height="200"><path d="M0 1024C0 461.479287 453.763802 0.486653 1013.577505 0.486653 1573.391208 0.486653 2027.722772 461.489426 2027.722772 1024" fill="#43CCCF" p-id="18287"></path><path d="M155.698693 1022.377822c0-478.147168 385.186218-865.219168 861.052198-865.219169s861.062337 387.072 861.062337 865.229307" fill="#1296db" p-id="18288"></path><path d="M332.769584 1022.377822c0-379.255129 305.841426-687.631208 684.336159-687.631208 377.460594 0 684.32602 307.301386 684.326019 687.641346M238.592 575.771881l26.806495 26.938297c2.11897 2.129109 2.11897 5.657347 0 6.721901-2.129109 2.129109-5.637069 2.129109-6.701624 0l-26.816633-26.907881c-2.108832-2.129109-2.108832-5.677624 0-6.742178 2.11897-2.48396 4.582653-2.48396 6.711762 0v-0.010139z m42.683564 43.59604l26.806495 26.938297c2.11897 2.129109 2.11897 5.667485 0 6.732039-2.129109 2.129109-5.647208 2.129109-6.711762 0l-26.806495-26.928158c-2.108832-2.129109-2.108832-5.677624 0-6.742178 1.064554-1.064554 4.248079-1.064554 6.711762 0z m-50.439604 25.863604l26.806495-26.928159c2.11897-2.129109 5.626931-2.129109 6.691486 0 2.11897 2.129109 2.11897 4.613069 0 6.742179l-26.806495 26.928158c-2.108832 2.129109-5.647208 2.129109-6.691486 0-2.48396-1.064554-2.48396-4.248079 0-6.721901-1.064554 0 0 0 0 0v-0.020277z m43.748119-41.456792l26.786218-26.938297c2.11897-2.129109 5.647208-2.129109 6.711762 0 2.11897 2.129109 2.11897 4.613069 0 6.732039l-26.806495 26.928159c-2.108832 2.129109-5.647208 2.129109-6.711762 0-2.463683-1.064554-2.463683-4.592792 0-6.721901-1.399129 0-1.399129 0 0 0h0.020277z m1355.968634-497.29901l35.971802 36.154297c2.129109 2.129109 2.129109 6.721901 0 8.871287-2.108832 2.108832-6.691485 2.108832-8.810456 0l-35.992079-36.164436c-2.108832-2.129109-2.108832-6.742178 0-8.871287 2.129109-2.463683 6.721901-2.463683 8.830733 0z m57.141228 58.489663l35.992079 35.789307c2.129109 2.129109 2.129109 6.742178 0 8.871287-2.108832 2.129109-6.701624 2.129109-8.820594 0l-35.971802-36.164435c-2.129109-2.129109-2.129109-6.721901 0-8.871288 2.11897-2.108832 5.637069-2.108832 8.820594 0.375129h-0.020277z m-68.435644 34.724753l35.971802-36.144159c2.11897-2.129109 6.691485-2.129109 8.820594 0 2.129109 2.129109 2.129109 6.721901 0 8.861149l-35.606812 36.509148c-2.129109 2.11897-6.711762 2.11897-8.840871 0a7.046337 7.046337 0 0 1-0.344713-9.226138z m58.560634-56.350416L1713.425743 107.530139c2.108832-2.129109 6.691485-2.129109 8.820594 0 2.11897 2.129109 2.11897 6.742178 0 8.871287l-35.99208 36.144158c-2.108832 2.129109-6.691485 2.129109-8.820594 0-2.108832-1.064554-2.108832-5.677624 0.354852-9.205861 0 1.419406 0 0 0 0h0.020277z m226.111366 630.216237l21.159287 21.270812c1.054416 1.064554 1.054416 4.602931 0 5.657347-1.064554 1.064554-4.582653 1.064554-5.647208 0l-21.159287-21.260673c-1.064554-1.064554-1.064554-4.602931 0-5.667486 2.108832-1.054416 4.582653-1.054416 5.647208 0z m33.49798 35.089743l21.169426 21.270812c1.064554 1.064554 1.064554 4.613069 0 5.677624-1.054416 1.064554-4.582653 1.064554-5.647208 0l-21.169426-21.291089c-1.044277-1.044277-1.044277-4.592792 0-5.657347 1.064554-1.064554 3.538376-1.064554 5.647208 0z m-40.199604 20.206257l21.149149-20.206257c1.064554-1.064554 4.582653-1.064554 5.647208 0 1.064554 1.064554 1.064554 3.548515 0 5.677624l-21.159287 20.206257c-1.054416 1.064554-4.582653 1.064554-5.647208 0-1.054416-2.48396-1.054416-4.613069 0-5.677624h0.010138z m34.552396-32.605782l21.169426-20.206257c1.064554-1.064554 4.582653-1.064554 5.647208 0 1.064554 1.054416 1.064554 4.602931 0 5.667485l-21.169426 20.196119c-1.044277 1.064554-4.582653 1.064554-5.647208 0-2.108832-2.473822-2.108832-4.592792 0-5.657347-1.044277 0 0 0 0 0z" fill="#1296db" p-id="18289"></path><path d="M1120.823762 312.421386l272.323169 157.716277c15.167366 8.871287 20.094733 28.01299 11.639128 43.251327l-205.651643 358.349307a31.581782 31.581782 0 0 1-43.038416 11.689822l-272.323168-157.726416a31.896079 31.896079 0 0 1-11.639129-43.241188l205.661782-358.349307c8.800317-15.238337 27.850772-20.55097 43.018139-11.689822z" fill="#FFFFFF" p-id="18290"></path><path d="M1232.277545 600.935921a89.88895 89.88895 0 0 1-100.524357-6.73204 91.409743 91.409743 0 0 1-32.453703-95.708515c9.51002-35.434455 39.50004-62.017901 75.836832-66.63097A90.172832 90.172832 0 0 1 1265.420673 476.514851c25.042376 43.59604 10.24 99.246891-33.153267 124.410931z m-104.062733-44.660594c16.586772 28.712554 51.504158 41.466931 82.548594 29.777109l-67.026376-116.604198c-25.387089 21.250535-32.098851 58.114535-15.51208 86.827089z m35.282376-98.182337l67.016238 116.614337a68.770218 68.770218 0 0 0 15.522218-86.847367 68.253149 68.253149 0 0 0-82.538456-29.76697z" fill="#1296db" p-id="18291"></path><path d="M601.574653 421.928554l326.990575-189.612356a38.496317 38.496317 0 0 1 28.570614-3.903366c9.530297 2.48396 17.985901 8.861149 22.933544 17.722297l247.260515 430.292911a37.837307 37.837307 0 0 1-13.74796 51.757623L886.621782 917.808158a38.496317 38.496317 0 0 1-28.590891 3.913505 37.127604 37.127604 0 0 1-22.913267-17.742574l-247.290931-430.282772a37.837307 37.837307 0 0 1 13.737822-51.767763h0.020277z" fill="#FFFFFF" p-id="18292"></path><path d="M1345.860436 329.778693a22.913267 22.913267 0 0 0-18.695604-19.131564c-10.584713-2.129109-10.584713-4.258218 0-6.387327 9.87501-1.419406 17.286337-9.226139 19.050455-18.786852 2.108832-10.645545 4.227802-10.645545 6.356911 0a22.913267 22.913267 0 0 0 18.695604 19.141703c10.574574 2.129109 10.574574 4.258218 0 6.387327-9.885149 1.419406-17.296475 9.205861-19.060594 18.756436-2.108832 10.645545-4.237941 10.290693-6.346772 0v0.020277z" fill="#E6E6E6" p-id="18293"></path><path d="M557.826535 736.681822c4.227802-23.034931-3.173386-41.112079-22.223842-54.241584-19.395168-13.078812-17.641188-17.33703 5.282218-13.078812 22.943683 4.227802 40.574733-3.203802 53.623129-22.345505 13.048396-19.506693 17.296475-17.732436 13.048396 5.322772-4.227802 23.024792 3.183525 41.101941 22.23398 54.231446 19.405307 13.109228 17.63105 17.357307-5.292357 13.109227-22.923406-4.258218-40.574733 3.183525-53.623128 22.325228s-17.286337 17.367446-13.048396-5.322772z" fill="#FFFFFF" p-id="18294"></path><path d="M1453.451406 742.734574c-7.401188-12.06495-21.86899-18.097426-35.282376-14.548911-14.802376 3.193663-16.221782 0-3.528238-8.516435a32.768 32.768 0 0 0 14.467802-35.789307c-2.818535-15.238337 0-16.302891 8.475881-3.548515 7.380911 12.044673 21.86899 18.077149 35.262099 14.528634 14.822653-3.173386 16.221782 0 3.548515 8.516435a32.768 32.768 0 0 0-14.488079 35.789307c3.173386 14.903762 0.354851 16.302891-8.455604 3.548515v0.020277z" fill="#E6E6E6" p-id="18295"></path><path d="M822.393663 542.811248a49.780594 49.780594 0 0 0 44.082693 23.39992c18.006178-0.709703 33.873109-11.000396 42.328713-26.948435a49.658931 49.658931 0 0 0-2.108831-49.983367c-14.812515-23.389782-45.512238-30.476673-68.790495-15.593188a50.176 50.176 0 0 0-15.51208 69.12507z m57.840792 141.068673c-2.473822 1.68301-5.576238 2.210218-8.465742 1.419406-2.808396-0.709703-5.647208-2.48396-7.046337-4.967921l-7.056475-11.33497c-25.752079-41.112079-0.354851-74.082851 40.554455-99.966733 40.939723-25.863604 81.494178-34.734891 107.246258 6.032475l7.056475 11.355248c1.764119 2.463683 2.11897 5.657347 1.409267 8.496158-0.709703 2.838812-2.473822 5.677624-4.937505 7.09703l-128.760396 81.869307z" fill="#1296db" p-id="18296"></path></svg>