<svg t="1740634106073" class="icon" viewBox="0 0 1024 1024" version="1.1" xmlns="http://www.w3.org/2000/svg" p-id="2034" width="200" height="200"><path d="M794.6955 79.771835 228.615814 79.771835C118.369921 79.771835 28.821419 169.186284 28.821419 279.483342l0 466.346217c0 110.320595 89.451288 199.713554 199.794395 199.713554l566.079686 0c110.246917 0 199.794395-89.414449 199.794395-199.713554L994.489896 279.483342C994.489896 169.163771 905.038608 79.771835 794.6955 79.771835zM927.892105 745.830583c0 73.473385-59.686381 133.115764-133.196605 133.115764L228.615814 878.946346c-73.576739 0-133.196605-59.59019-133.196605-133.115764L95.41921 279.483342c0-73.472362 59.686381-133.11474 133.196605-133.11474l566.079686 0c73.577762 0 133.196605 59.59019 133.196605 133.11474L927.892105 745.830583z" p-id="2035"></path><path d="M678.239162 455.901331c-75.738985-48.070832-162.055886-104.373139-237.332337-150.446477-37.47245-22.936385-62.446237-0.505513-62.446237 37.963637l0 335.777463c0 46.783513 24.665773 62.125943 62.682621 39.835264 81.97399-48.064692 178.00002-108.144022 248.199849-160.497391C724.791407 532.095687 715.063859 479.275691 678.239162 455.901331zM445.057355 639.253242 445.057355 386.350279c23.423479 14.646582 181.325765 115.514897 196.09719 124.893498C589.229942 549.31793 520.136308 594.165348 445.057355 639.253242z" p-id="2036"></path></svg>